%TF.GenerationSoftware,KiCad,Pcbnew,9.0.6*%
%TF.CreationDate,2026-01-29T21:19:16-08:00*%
%TF.ProjectId,Lab3_VEML7700_Breakout ,4c616233-5f56-4454-9d4c-373730305f42,rev?*%
%TF.SameCoordinates,Original*%
%TF.FileFunction,Copper,L1,Top*%
%TF.FilePolarity,Positive*%
%FSLAX46Y46*%
G04 Gerber Fmt 4.6, Leading zero omitted, Abs format (unit mm)*
G04 Created by KiCad (PCBNEW 9.0.6) date 2026-01-29 21:19:16*
%MOMM*%
%LPD*%
G01*
G04 APERTURE LIST*
G04 Aperture macros list*
%AMRoundRect*
0 Rectangle with rounded corners*
0 $1 Rounding radius*
0 $2 $3 $4 $5 $6 $7 $8 $9 X,Y pos of 4 corners*
0 Add a 4 corners polygon primitive as box body*
4,1,4,$2,$3,$4,$5,$6,$7,$8,$9,$2,$3,0*
0 Add four circle primitives for the rounded corners*
1,1,$1+$1,$2,$3*
1,1,$1+$1,$4,$5*
1,1,$1+$1,$6,$7*
1,1,$1+$1,$8,$9*
0 Add four rect primitives between the rounded corners*
20,1,$1+$1,$2,$3,$4,$5,0*
20,1,$1+$1,$4,$5,$6,$7,0*
20,1,$1+$1,$6,$7,$8,$9,0*
20,1,$1+$1,$8,$9,$2,$3,0*%
G04 Aperture macros list end*
%TA.AperFunction,SMDPad,CuDef*%
%ADD10RoundRect,0.250000X-0.450000X0.262500X-0.450000X-0.262500X0.450000X-0.262500X0.450000X0.262500X0*%
%TD*%
%TA.AperFunction,SMDPad,CuDef*%
%ADD11RoundRect,0.250000X-0.250000X-0.475000X0.250000X-0.475000X0.250000X0.475000X-0.250000X0.475000X0*%
%TD*%
%TA.AperFunction,SMDPad,CuDef*%
%ADD12RoundRect,0.150000X-0.512500X-0.150000X0.512500X-0.150000X0.512500X0.150000X-0.512500X0.150000X0*%
%TD*%
%TA.AperFunction,SMDPad,CuDef*%
%ADD13R,1.397000X0.711200*%
%TD*%
%TA.AperFunction,SMDPad,CuDef*%
%ADD14RoundRect,0.250000X0.450000X-0.262500X0.450000X0.262500X-0.450000X0.262500X-0.450000X-0.262500X0*%
%TD*%
%TA.AperFunction,SMDPad,CuDef*%
%ADD15RoundRect,0.250000X-0.262500X-0.450000X0.262500X-0.450000X0.262500X0.450000X-0.262500X0.450000X0*%
%TD*%
%TA.AperFunction,ComponentPad*%
%ADD16R,1.700000X1.700000*%
%TD*%
%TA.AperFunction,ComponentPad*%
%ADD17C,1.700000*%
%TD*%
%TA.AperFunction,SMDPad,CuDef*%
%ADD18RoundRect,0.243750X0.456250X-0.243750X0.456250X0.243750X-0.456250X0.243750X-0.456250X-0.243750X0*%
%TD*%
%TA.AperFunction,SMDPad,CuDef*%
%ADD19RoundRect,0.250000X0.475000X-0.250000X0.475000X0.250000X-0.475000X0.250000X-0.475000X-0.250000X0*%
%TD*%
%TA.AperFunction,SMDPad,CuDef*%
%ADD20RoundRect,0.250000X-0.475000X0.250000X-0.475000X-0.250000X0.475000X-0.250000X0.475000X0.250000X0*%
%TD*%
%TA.AperFunction,ViaPad*%
%ADD21C,0.600000*%
%TD*%
%TA.AperFunction,Conductor*%
%ADD22C,0.200000*%
%TD*%
G04 APERTURE END LIST*
D10*
%TO.P,R2,2*%
%TO.N,GND*%
X110000000Y-100912500D03*
%TO.P,R2,1*%
%TO.N,Net-(U2-FB)*%
X110000000Y-99087500D03*
%TD*%
D11*
%TO.P,C2,1*%
%TO.N,+3V3*%
X107050000Y-92450000D03*
%TO.P,C2,2*%
%TO.N,GND*%
X108950000Y-92450000D03*
%TD*%
D12*
%TO.P,U2,6,~{SD}*%
%TO.N,VCC*%
X105550000Y-95550000D03*
%TO.P,U2,5,FB*%
%TO.N,Net-(U2-FB)*%
X105550000Y-96500000D03*
%TO.P,U2,4,GND*%
%TO.N,GND*%
X105550000Y-97450000D03*
%TO.P,U2,3,~{ERR}*%
%TO.N,unconnected-(U2-~{ERR}-Pad3)*%
X103275000Y-97450000D03*
%TO.P,U2,2,IN*%
%TO.N,VCC*%
X103275000Y-96500000D03*
%TO.P,U2,1,OUT*%
%TO.N,+3V3*%
X103275000Y-95550000D03*
%TD*%
D13*
%TO.P,U1,1,SCL*%
%TO.N,/SCL*%
X105570200Y-85929800D03*
%TO.P,U1,2,VDD*%
%TO.N,+3V3*%
X105570200Y-84659800D03*
%TO.P,U1,3,GND*%
%TO.N,GND*%
X105570200Y-83389800D03*
%TO.P,U1,4,SDA*%
%TO.N,/SDA*%
X105570200Y-82119800D03*
%TD*%
D14*
%TO.P,R5,1*%
%TO.N,Net-(D1-A)*%
X117500000Y-88825000D03*
%TO.P,R5,2*%
%TO.N,+3V3*%
X117500000Y-87000000D03*
%TD*%
D15*
%TO.P,R4,1*%
%TO.N,/SDA*%
X109500000Y-84000000D03*
%TO.P,R4,2*%
%TO.N,+3V3*%
X111325000Y-84000000D03*
%TD*%
D14*
%TO.P,R3,1*%
%TO.N,+3V3*%
X99000000Y-89412500D03*
%TO.P,R3,2*%
%TO.N,/SCL*%
X99000000Y-87587500D03*
%TD*%
D10*
%TO.P,R1,1*%
%TO.N,+3V3*%
X110000000Y-95000000D03*
%TO.P,R1,2*%
%TO.N,Net-(U2-FB)*%
X110000000Y-96825000D03*
%TD*%
D16*
%TO.P,J1,1,Pin_1*%
%TO.N,GND*%
X94500000Y-82190000D03*
D17*
%TO.P,J1,2,Pin_2*%
%TO.N,/SCL*%
X94500000Y-84730000D03*
%TO.P,J1,3,Pin_3*%
%TO.N,/SDA*%
X94500000Y-87270000D03*
%TO.P,J1,4,Pin_4*%
%TO.N,VCC*%
X94500000Y-89810000D03*
%TD*%
D18*
%TO.P,D1,1,K*%
%TO.N,GND*%
X117500000Y-93875000D03*
%TO.P,D1,2,A*%
%TO.N,Net-(D1-A)*%
X117500000Y-92000000D03*
%TD*%
D19*
%TO.P,C3,1*%
%TO.N,+3V3*%
X109500000Y-80900000D03*
%TO.P,C3,2*%
%TO.N,GND*%
X109500000Y-79000000D03*
%TD*%
D20*
%TO.P,C1,2*%
%TO.N,GND*%
X97000000Y-97900000D03*
%TO.P,C1,1*%
%TO.N,VCC*%
X97000000Y-96000000D03*
%TD*%
D21*
%TO.N,/SDA*%
X98500000Y-83500000D03*
X97000000Y-87000000D03*
%TO.N,+3V3*%
X108000000Y-94500000D03*
X103500000Y-94000000D03*
%TO.N,VCC*%
X106500000Y-94000000D03*
X104000000Y-93000000D03*
%TD*%
D22*
%TO.N,/SDA*%
X105570200Y-82119800D02*
X108119800Y-82119800D01*
X108119800Y-82119800D02*
X109500000Y-83500000D01*
X109500000Y-83500000D02*
X109500000Y-84000000D01*
%TO.N,+3V3*%
X109500000Y-80900000D02*
X111325000Y-82725000D01*
X111325000Y-82725000D02*
X111325000Y-84000000D01*
%TO.N,/SDA*%
X98500000Y-83500000D02*
X99880200Y-82119800D01*
X99880200Y-82119800D02*
X105570200Y-82119800D01*
X96730000Y-87270000D02*
X97000000Y-87000000D01*
X94500000Y-87270000D02*
X96730000Y-87270000D01*
%TO.N,/SCL*%
X98000000Y-85929800D02*
X105570200Y-85929800D01*
X98000000Y-85929800D02*
X98000000Y-86587500D01*
X98000000Y-86587500D02*
X99000000Y-87587500D01*
X94500000Y-84730000D02*
X95699800Y-85929800D01*
X95699800Y-85929800D02*
X98000000Y-85929800D01*
%TO.N,Net-(D1-A)*%
X117500000Y-88825000D02*
X117500000Y-92000000D01*
%TO.N,+3V3*%
X111325000Y-88175000D02*
X111825000Y-88175000D01*
X111825000Y-88175000D02*
X113000000Y-87000000D01*
X113000000Y-87000000D02*
X117500000Y-87000000D01*
%TO.N,Net-(U2-FB)*%
X105550000Y-96500000D02*
X107412500Y-96500000D01*
X107412500Y-96500000D02*
X110000000Y-99087500D01*
X110000000Y-96825000D02*
X110000000Y-97000000D01*
X110000000Y-97000000D02*
X109500000Y-96500000D01*
X109500000Y-96500000D02*
X105550000Y-96500000D01*
%TO.N,+3V3*%
X108000000Y-94500000D02*
X108500000Y-95000000D01*
X108500000Y-95000000D02*
X110000000Y-95000000D01*
X103275000Y-94225000D02*
X103500000Y-94000000D01*
X103275000Y-95550000D02*
X103275000Y-94225000D01*
%TO.N,VCC*%
X106500000Y-94000000D02*
X106500000Y-94600000D01*
X106500000Y-94600000D02*
X105550000Y-95550000D01*
X97690000Y-93000000D02*
X104000000Y-93000000D01*
X94500000Y-89810000D02*
X97690000Y-93000000D01*
X101190000Y-96500000D02*
X100500000Y-96500000D01*
X100500000Y-96500000D02*
X100000000Y-96000000D01*
X100000000Y-96000000D02*
X97000000Y-96000000D01*
X94500000Y-89810000D02*
X101190000Y-96500000D01*
X101190000Y-96500000D02*
X103275000Y-96500000D01*
%TO.N,+3V3*%
X111325000Y-84000000D02*
X111325000Y-88175000D01*
X111325000Y-88175000D02*
X107050000Y-92450000D01*
X107050000Y-92450000D02*
X107050000Y-85796700D01*
X107050000Y-85796700D02*
X105913100Y-84659800D01*
X105913100Y-84659800D02*
X105570200Y-84659800D01*
X103275000Y-95550000D02*
X103950000Y-95550000D01*
X103950000Y-95550000D02*
X107050000Y-92450000D01*
X99000000Y-89412500D02*
X104012500Y-89412500D01*
X104012500Y-89412500D02*
X107050000Y-92450000D01*
X105956300Y-84659800D02*
X105570200Y-84659800D01*
%TD*%
%TA.AperFunction,Conductor*%
%TO.N,GND*%
G36*
X119503736Y-75000726D02*
G01*
X119793796Y-75018271D01*
X119808659Y-75020076D01*
X120090798Y-75071780D01*
X120105335Y-75075363D01*
X120379172Y-75160695D01*
X120393163Y-75166000D01*
X120654743Y-75283727D01*
X120667989Y-75290680D01*
X120913465Y-75439075D01*
X120925776Y-75447573D01*
X121151573Y-75624473D01*
X121162781Y-75634403D01*
X121365596Y-75837218D01*
X121375526Y-75848426D01*
X121495481Y-76001538D01*
X121552422Y-76074217D01*
X121560928Y-76086540D01*
X121709316Y-76332004D01*
X121716275Y-76345263D01*
X121833997Y-76606831D01*
X121839306Y-76620832D01*
X121924635Y-76894663D01*
X121928219Y-76909201D01*
X121979923Y-77191340D01*
X121981728Y-77206205D01*
X121999274Y-77496263D01*
X121999500Y-77503750D01*
X121999500Y-101996249D01*
X121999274Y-102003736D01*
X121981728Y-102293794D01*
X121979923Y-102308659D01*
X121928219Y-102590798D01*
X121924635Y-102605336D01*
X121839306Y-102879167D01*
X121833997Y-102893168D01*
X121716275Y-103154736D01*
X121709316Y-103167995D01*
X121560928Y-103413459D01*
X121552422Y-103425782D01*
X121375526Y-103651573D01*
X121365596Y-103662781D01*
X121162781Y-103865596D01*
X121151573Y-103875526D01*
X120925782Y-104052422D01*
X120913459Y-104060928D01*
X120667995Y-104209316D01*
X120654736Y-104216275D01*
X120393168Y-104333997D01*
X120379167Y-104339306D01*
X120105336Y-104424635D01*
X120090798Y-104428219D01*
X119808659Y-104479923D01*
X119793794Y-104481728D01*
X119503736Y-104499274D01*
X119496249Y-104499500D01*
X88003751Y-104499500D01*
X87996264Y-104499274D01*
X87706205Y-104481728D01*
X87691340Y-104479923D01*
X87409201Y-104428219D01*
X87394663Y-104424635D01*
X87120832Y-104339306D01*
X87106831Y-104333997D01*
X86845263Y-104216275D01*
X86832004Y-104209316D01*
X86586540Y-104060928D01*
X86574217Y-104052422D01*
X86348426Y-103875526D01*
X86337218Y-103865596D01*
X86134403Y-103662781D01*
X86124473Y-103651573D01*
X85947573Y-103425776D01*
X85939075Y-103413465D01*
X85790680Y-103167989D01*
X85783727Y-103154743D01*
X85666000Y-102893163D01*
X85660693Y-102879167D01*
X85591357Y-102656661D01*
X85575363Y-102605335D01*
X85571780Y-102590798D01*
X85520076Y-102308659D01*
X85518271Y-102293794D01*
X85500726Y-102003736D01*
X85500500Y-101996249D01*
X85500500Y-101385258D01*
X87249500Y-101385258D01*
X87249500Y-101614741D01*
X87269588Y-101767315D01*
X87279452Y-101842238D01*
X87304068Y-101934108D01*
X87338842Y-102063887D01*
X87426650Y-102275876D01*
X87426657Y-102275890D01*
X87541392Y-102474617D01*
X87681081Y-102656661D01*
X87681089Y-102656670D01*
X87843330Y-102818911D01*
X87843338Y-102818918D01*
X88025382Y-102958607D01*
X88025385Y-102958608D01*
X88025388Y-102958611D01*
X88224112Y-103073344D01*
X88224117Y-103073346D01*
X88224123Y-103073349D01*
X88315480Y-103111190D01*
X88436113Y-103161158D01*
X88657762Y-103220548D01*
X88885266Y-103250500D01*
X88885273Y-103250500D01*
X89114727Y-103250500D01*
X89114734Y-103250500D01*
X89342238Y-103220548D01*
X89563887Y-103161158D01*
X89775888Y-103073344D01*
X89974612Y-102958611D01*
X90156661Y-102818919D01*
X90156665Y-102818914D01*
X90156670Y-102818911D01*
X90318911Y-102656670D01*
X90318914Y-102656665D01*
X90318919Y-102656661D01*
X90458611Y-102474612D01*
X90573344Y-102275888D01*
X90661158Y-102063887D01*
X90720548Y-101842238D01*
X90750500Y-101614734D01*
X90750500Y-101385266D01*
X90729398Y-101224986D01*
X108800001Y-101224986D01*
X108810494Y-101327697D01*
X108865641Y-101494119D01*
X108865643Y-101494124D01*
X108957684Y-101643345D01*
X109081654Y-101767315D01*
X109230875Y-101859356D01*
X109230880Y-101859358D01*
X109397302Y-101914505D01*
X109397309Y-101914506D01*
X109500019Y-101924999D01*
X109749999Y-101924999D01*
X110250000Y-101924999D01*
X110499972Y-101924999D01*
X110499986Y-101924998D01*
X110602697Y-101914505D01*
X110769119Y-101859358D01*
X110769124Y-101859356D01*
X110918345Y-101767315D01*
X111042315Y-101643345D01*
X111134356Y-101494124D01*
X111134358Y-101494119D01*
X111170431Y-101385258D01*
X116749500Y-101385258D01*
X116749500Y-101614741D01*
X116769588Y-101767315D01*
X116779452Y-101842238D01*
X116804068Y-101934108D01*
X116838842Y-102063887D01*
X116926650Y-102275876D01*
X116926657Y-102275890D01*
X117041392Y-102474617D01*
X117181081Y-102656661D01*
X117181089Y-102656670D01*
X117343330Y-102818911D01*
X117343338Y-102818918D01*
X117525382Y-102958607D01*
X117525385Y-102958608D01*
X117525388Y-102958611D01*
X117724112Y-103073344D01*
X117724117Y-103073346D01*
X117724123Y-103073349D01*
X117815480Y-103111190D01*
X117936113Y-103161158D01*
X118157762Y-103220548D01*
X118385266Y-103250500D01*
X118385273Y-103250500D01*
X118614727Y-103250500D01*
X118614734Y-103250500D01*
X118842238Y-103220548D01*
X119063887Y-103161158D01*
X119275888Y-103073344D01*
X119474612Y-102958611D01*
X119656661Y-102818919D01*
X119656665Y-102818914D01*
X119656670Y-102818911D01*
X119818911Y-102656670D01*
X119818914Y-102656665D01*
X119818919Y-102656661D01*
X119958611Y-102474612D01*
X120073344Y-102275888D01*
X120161158Y-102063887D01*
X120220548Y-101842238D01*
X120250500Y-101614734D01*
X120250500Y-101385266D01*
X120220548Y-101157762D01*
X120161158Y-100936113D01*
X120073344Y-100724112D01*
X119958611Y-100525388D01*
X119958608Y-100525385D01*
X119958607Y-100525382D01*
X119818918Y-100343338D01*
X119818911Y-100343330D01*
X119656670Y-100181089D01*
X119656661Y-100181081D01*
X119474617Y-100041392D01*
X119275890Y-99926657D01*
X119275876Y-99926650D01*
X119063887Y-99838842D01*
X118842238Y-99779452D01*
X118804215Y-99774446D01*
X118614741Y-99749500D01*
X118614734Y-99749500D01*
X118385266Y-99749500D01*
X118385258Y-99749500D01*
X118168715Y-99778009D01*
X118157762Y-99779452D01*
X118064076Y-99804554D01*
X117936112Y-99838842D01*
X117724123Y-99926650D01*
X117724109Y-99926657D01*
X117525382Y-100041392D01*
X117343338Y-100181081D01*
X117181081Y-100343338D01*
X117041392Y-100525382D01*
X116926657Y-100724109D01*
X116926650Y-100724123D01*
X116838842Y-100936112D01*
X116779453Y-101157759D01*
X116779451Y-101157770D01*
X116749500Y-101385258D01*
X111170431Y-101385258D01*
X111184698Y-101342203D01*
X111184699Y-101342201D01*
X111189504Y-101327699D01*
X111189506Y-101327690D01*
X111199999Y-101224986D01*
X111200000Y-101224973D01*
X111200000Y-101162500D01*
X110250000Y-101162500D01*
X110250000Y-101924999D01*
X109749999Y-101924999D01*
X109750000Y-101924998D01*
X109750000Y-101162500D01*
X108800001Y-101162500D01*
X108800001Y-101224986D01*
X90729398Y-101224986D01*
X90720548Y-101157762D01*
X90661158Y-100936113D01*
X90573344Y-100724112D01*
X90458611Y-100525388D01*
X90458608Y-100525385D01*
X90458607Y-100525382D01*
X90318918Y-100343338D01*
X90318911Y-100343330D01*
X90156670Y-100181089D01*
X90156661Y-100181081D01*
X89974617Y-100041392D01*
X89775890Y-99926657D01*
X89775876Y-99926650D01*
X89563887Y-99838842D01*
X89342238Y-99779452D01*
X89304215Y-99774446D01*
X89114741Y-99749500D01*
X89114734Y-99749500D01*
X88885266Y-99749500D01*
X88885258Y-99749500D01*
X88668715Y-99778009D01*
X88657762Y-99779452D01*
X88564076Y-99804554D01*
X88436112Y-99838842D01*
X88224123Y-99926650D01*
X88224109Y-99926657D01*
X88025382Y-100041392D01*
X87843338Y-100181081D01*
X87681081Y-100343338D01*
X87541392Y-100525382D01*
X87426657Y-100724109D01*
X87426650Y-100724123D01*
X87338842Y-100936112D01*
X87279453Y-101157759D01*
X87279451Y-101157770D01*
X87249500Y-101385258D01*
X85500500Y-101385258D01*
X85500500Y-98199986D01*
X95775001Y-98199986D01*
X95785494Y-98302697D01*
X95840641Y-98469119D01*
X95840643Y-98469124D01*
X95932684Y-98618345D01*
X96056654Y-98742315D01*
X96205875Y-98834356D01*
X96205880Y-98834358D01*
X96372302Y-98889505D01*
X96372309Y-98889506D01*
X96475019Y-98899999D01*
X96749999Y-98899999D01*
X97250000Y-98899999D01*
X97524972Y-98899999D01*
X97524986Y-98899998D01*
X97627697Y-98889505D01*
X97794119Y-98834358D01*
X97794124Y-98834356D01*
X97943345Y-98742315D01*
X98067315Y-98618345D01*
X98159356Y-98469124D01*
X98159358Y-98469119D01*
X98214505Y-98302697D01*
X98214506Y-98302690D01*
X98224999Y-98199986D01*
X98225000Y-98199973D01*
X98225000Y-98150000D01*
X97250000Y-98150000D01*
X97250000Y-98899999D01*
X96749999Y-98899999D01*
X96750000Y-98899998D01*
X96750000Y-98150000D01*
X95775001Y-98150000D01*
X95775001Y-98199986D01*
X85500500Y-98199986D01*
X85500500Y-84623713D01*
X93149500Y-84623713D01*
X93149500Y-84836286D01*
X93182753Y-85046239D01*
X93182753Y-85046241D01*
X93182754Y-85046243D01*
X93237431Y-85214522D01*
X93248444Y-85248414D01*
X93344951Y-85437820D01*
X93469890Y-85609786D01*
X93620213Y-85760109D01*
X93792182Y-85885050D01*
X93800946Y-85889516D01*
X93851742Y-85937491D01*
X93868536Y-86005312D01*
X93845998Y-86071447D01*
X93800946Y-86110484D01*
X93792182Y-86114949D01*
X93620213Y-86239890D01*
X93469890Y-86390213D01*
X93344951Y-86562179D01*
X93248444Y-86751585D01*
X93182753Y-86953760D01*
X93149500Y-87163713D01*
X93149500Y-87376286D01*
X93182055Y-87581834D01*
X93182754Y-87586243D01*
X93242375Y-87769738D01*
X93248444Y-87788414D01*
X93344951Y-87977820D01*
X93469890Y-88149786D01*
X93620213Y-88300109D01*
X93792182Y-88425050D01*
X93800946Y-88429516D01*
X93851742Y-88477491D01*
X93868536Y-88545312D01*
X93845998Y-88611447D01*
X93800946Y-88650484D01*
X93792182Y-88654949D01*
X93620213Y-88779890D01*
X93469890Y-88930213D01*
X93344951Y-89102179D01*
X93248444Y-89291585D01*
X93182753Y-89493760D01*
X93149500Y-89703713D01*
X93149500Y-89916286D01*
X93182753Y-90126239D01*
X93182753Y-90126241D01*
X93182754Y-90126243D01*
X93237431Y-90294522D01*
X93248444Y-90328414D01*
X93344951Y-90517820D01*
X93469890Y-90689786D01*
X93620213Y-90840109D01*
X93792179Y-90965048D01*
X93792181Y-90965049D01*
X93792184Y-90965051D01*
X93981588Y-91061557D01*
X94183757Y-91127246D01*
X94393713Y-91160500D01*
X94393714Y-91160500D01*
X94606286Y-91160500D01*
X94606287Y-91160500D01*
X94816243Y-91127246D01*
X94858523Y-91113507D01*
X94928362Y-91111511D01*
X94984522Y-91143757D01*
X97209479Y-93368714D01*
X97209480Y-93368716D01*
X97321284Y-93480520D01*
X97321285Y-93480520D01*
X97338726Y-93497961D01*
X99028583Y-95187819D01*
X99062068Y-95249142D01*
X99057084Y-95318834D01*
X99015212Y-95374767D01*
X98949748Y-95399184D01*
X98940902Y-95399500D01*
X98209798Y-95399500D01*
X98142759Y-95379815D01*
X98104259Y-95340597D01*
X98067712Y-95281344D01*
X97943656Y-95157288D01*
X97794334Y-95065186D01*
X97627797Y-95010001D01*
X97627795Y-95010000D01*
X97525010Y-94999500D01*
X96474998Y-94999500D01*
X96474980Y-94999501D01*
X96372203Y-95010000D01*
X96372200Y-95010001D01*
X96205668Y-95065185D01*
X96205663Y-95065187D01*
X96056342Y-95157289D01*
X95932289Y-95281342D01*
X95840187Y-95430663D01*
X95840186Y-95430666D01*
X95785001Y-95597203D01*
X95785001Y-95597204D01*
X95785000Y-95597204D01*
X95774500Y-95699983D01*
X95774500Y-96300001D01*
X95774501Y-96300019D01*
X95785000Y-96402796D01*
X95785001Y-96402799D01*
X95787288Y-96409700D01*
X95840186Y-96569334D01*
X95932288Y-96718656D01*
X96056344Y-96842712D01*
X96059628Y-96844737D01*
X96059653Y-96844753D01*
X96061445Y-96846746D01*
X96062011Y-96847193D01*
X96061934Y-96847289D01*
X96106379Y-96896699D01*
X96117603Y-96965661D01*
X96089761Y-97029744D01*
X96059665Y-97055826D01*
X96056660Y-97057679D01*
X96056655Y-97057683D01*
X95932684Y-97181654D01*
X95840643Y-97330875D01*
X95840641Y-97330880D01*
X95785494Y-97497302D01*
X95785493Y-97497309D01*
X95775000Y-97600013D01*
X95775000Y-97650000D01*
X98224999Y-97650000D01*
X98224999Y-97600028D01*
X98224998Y-97600013D01*
X98214505Y-97497302D01*
X98159358Y-97330880D01*
X98159356Y-97330875D01*
X98067315Y-97181654D01*
X97943344Y-97057683D01*
X97943341Y-97057681D01*
X97940339Y-97055829D01*
X97938713Y-97054021D01*
X97937677Y-97053202D01*
X97937817Y-97053024D01*
X97893617Y-97003880D01*
X97882397Y-96934917D01*
X97910243Y-96870836D01*
X97940344Y-96844754D01*
X97943656Y-96842712D01*
X98067712Y-96718656D01*
X98104259Y-96659402D01*
X98156207Y-96612679D01*
X98209798Y-96600500D01*
X99699903Y-96600500D01*
X99766942Y-96620185D01*
X99787583Y-96636818D01*
X100131284Y-96980520D01*
X100131286Y-96980521D01*
X100131290Y-96980524D01*
X100264932Y-97057681D01*
X100268216Y-97059577D01*
X100420943Y-97100501D01*
X100420945Y-97100501D01*
X100586654Y-97100501D01*
X100586670Y-97100500D01*
X101110939Y-97100500D01*
X101110943Y-97100501D01*
X101269058Y-97100501D01*
X101269062Y-97100500D01*
X101988388Y-97100500D01*
X102055427Y-97120185D01*
X102101182Y-97172989D01*
X102111586Y-97231847D01*
X102112096Y-97231868D01*
X102112004Y-97234210D01*
X102112006Y-97234222D01*
X102112001Y-97234282D01*
X102112000Y-97234313D01*
X102112000Y-97665701D01*
X102114901Y-97702567D01*
X102114902Y-97702573D01*
X102160754Y-97860393D01*
X102160755Y-97860396D01*
X102244232Y-98001550D01*
X102244418Y-98001864D01*
X102244423Y-98001870D01*
X102360629Y-98118076D01*
X102360633Y-98118079D01*
X102360635Y-98118081D01*
X102502102Y-98201744D01*
X102543724Y-98213836D01*
X102659926Y-98247597D01*
X102659929Y-98247597D01*
X102659931Y-98247598D01*
X102696806Y-98250500D01*
X102696814Y-98250500D01*
X103853186Y-98250500D01*
X103853194Y-98250500D01*
X103890069Y-98247598D01*
X103890071Y-98247597D01*
X103890073Y-98247597D01*
X103942766Y-98232288D01*
X104047898Y-98201744D01*
X104189365Y-98118081D01*
X104305581Y-98001865D01*
X104306055Y-98001062D01*
X104306590Y-98000562D01*
X104310361Y-97995702D01*
X104311144Y-97996310D01*
X104357122Y-97953377D01*
X104425863Y-97940870D01*
X104490453Y-97967513D01*
X104514783Y-97995589D01*
X104515037Y-97995393D01*
X104518650Y-98000051D01*
X104519520Y-98001055D01*
X104519813Y-98001550D01*
X104519821Y-98001561D01*
X104635938Y-98117678D01*
X104635947Y-98117685D01*
X104777303Y-98201282D01*
X104777306Y-98201283D01*
X104935004Y-98247099D01*
X104935010Y-98247100D01*
X104971850Y-98249999D01*
X104971866Y-98250000D01*
X105300000Y-98250000D01*
X105800000Y-98250000D01*
X106128134Y-98250000D01*
X106128149Y-98249999D01*
X106164989Y-98247100D01*
X106164995Y-98247099D01*
X106322693Y-98201283D01*
X106322696Y-98201282D01*
X106464052Y-98117685D01*
X106464061Y-98117678D01*
X106580178Y-98001561D01*
X106580185Y-98001552D01*
X106663781Y-97860198D01*
X106709600Y-97702486D01*
X106709795Y-97700001D01*
X106709795Y-97700000D01*
X105800000Y-97700000D01*
X105800000Y-98250000D01*
X105300000Y-98250000D01*
X105300000Y-97574000D01*
X105319685Y-97506961D01*
X105372489Y-97461206D01*
X105424000Y-97450000D01*
X105550000Y-97450000D01*
X105550000Y-97424500D01*
X105569685Y-97357461D01*
X105622489Y-97311706D01*
X105674000Y-97300500D01*
X106128186Y-97300500D01*
X106128194Y-97300500D01*
X106165069Y-97297598D01*
X106165071Y-97297597D01*
X106165073Y-97297597D01*
X106206691Y-97285505D01*
X106322898Y-97251744D01*
X106381194Y-97217268D01*
X106444315Y-97200000D01*
X106709795Y-97200000D01*
X106722587Y-97186161D01*
X106726855Y-97165848D01*
X106775909Y-97116093D01*
X106836107Y-97100500D01*
X107112403Y-97100500D01*
X107179442Y-97120185D01*
X107200084Y-97136819D01*
X108763181Y-98699917D01*
X108796666Y-98761240D01*
X108799500Y-98787598D01*
X108799500Y-99400001D01*
X108799501Y-99400019D01*
X108810000Y-99502796D01*
X108810001Y-99502799D01*
X108865185Y-99669331D01*
X108865186Y-99669334D01*
X108933106Y-99779451D01*
X108957289Y-99818657D01*
X109051304Y-99912672D01*
X109084789Y-99973995D01*
X109079805Y-100043687D01*
X109051305Y-100088034D01*
X108957682Y-100181657D01*
X108865643Y-100330875D01*
X108865641Y-100330880D01*
X108810494Y-100497302D01*
X108810493Y-100497309D01*
X108800000Y-100600013D01*
X108800000Y-100662500D01*
X111199999Y-100662500D01*
X111199999Y-100600028D01*
X111199998Y-100600013D01*
X111189505Y-100497302D01*
X111134358Y-100330880D01*
X111134356Y-100330875D01*
X111042315Y-100181654D01*
X110948695Y-100088034D01*
X110915210Y-100026711D01*
X110920194Y-99957019D01*
X110948691Y-99912676D01*
X111042712Y-99818656D01*
X111134814Y-99669334D01*
X111189999Y-99502797D01*
X111200500Y-99400009D01*
X111200499Y-98774992D01*
X111189999Y-98672203D01*
X111134814Y-98505666D01*
X111042712Y-98356344D01*
X110918656Y-98232288D01*
X110769334Y-98140186D01*
X110602797Y-98085001D01*
X110602795Y-98085000D01*
X110550004Y-98079607D01*
X110485313Y-98053210D01*
X110445162Y-97996029D01*
X110442300Y-97926218D01*
X110477634Y-97865941D01*
X110539947Y-97834337D01*
X110549997Y-97832892D01*
X110602797Y-97827499D01*
X110769334Y-97772314D01*
X110918656Y-97680212D01*
X111042712Y-97556156D01*
X111134814Y-97406834D01*
X111189999Y-97240297D01*
X111200500Y-97137509D01*
X111200499Y-96512492D01*
X111189999Y-96409703D01*
X111134814Y-96243166D01*
X111042712Y-96093844D01*
X110949049Y-96000181D01*
X110915564Y-95938858D01*
X110920548Y-95869166D01*
X110949049Y-95824819D01*
X110971299Y-95802569D01*
X111042712Y-95731156D01*
X111134814Y-95581834D01*
X111189999Y-95415297D01*
X111200500Y-95312509D01*
X111200499Y-94687492D01*
X111199637Y-94679057D01*
X111189999Y-94584703D01*
X111189998Y-94584700D01*
X111172395Y-94531577D01*
X111134814Y-94418166D01*
X111042712Y-94268844D01*
X110942183Y-94168315D01*
X116300000Y-94168315D01*
X116310407Y-94270173D01*
X116365094Y-94435209D01*
X116365096Y-94435214D01*
X116456370Y-94583191D01*
X116579308Y-94706129D01*
X116727285Y-94797403D01*
X116727290Y-94797405D01*
X116892326Y-94852092D01*
X116994184Y-94862499D01*
X116994197Y-94862500D01*
X117250000Y-94862500D01*
X117750000Y-94862500D01*
X118005803Y-94862500D01*
X118005815Y-94862499D01*
X118107673Y-94852092D01*
X118272709Y-94797405D01*
X118272714Y-94797403D01*
X118420691Y-94706129D01*
X118543629Y-94583191D01*
X118634903Y-94435214D01*
X118634905Y-94435209D01*
X118689592Y-94270173D01*
X118699999Y-94168315D01*
X118700000Y-94168302D01*
X118700000Y-94125000D01*
X117750000Y-94125000D01*
X117750000Y-94862500D01*
X117250000Y-94862500D01*
X117250000Y-94125000D01*
X116300000Y-94125000D01*
X116300000Y-94168315D01*
X110942183Y-94168315D01*
X110918656Y-94144788D01*
X110811740Y-94078842D01*
X110769336Y-94052687D01*
X110769331Y-94052685D01*
X110763950Y-94050902D01*
X110602797Y-93997501D01*
X110602795Y-93997500D01*
X110500010Y-93987000D01*
X109499998Y-93987000D01*
X109499980Y-93987001D01*
X109397203Y-93997500D01*
X109397200Y-93997501D01*
X109230668Y-94052685D01*
X109230663Y-94052687D01*
X109081345Y-94144787D01*
X108956579Y-94269553D01*
X108895256Y-94303037D01*
X108825564Y-94298053D01*
X108769631Y-94256181D01*
X108754337Y-94229323D01*
X108709397Y-94120827D01*
X108709390Y-94120814D01*
X108621789Y-93989711D01*
X108621786Y-93989707D01*
X108514520Y-93882441D01*
X108481035Y-93821118D01*
X108486019Y-93751426D01*
X108527891Y-93695493D01*
X108593355Y-93671076D01*
X108614804Y-93671402D01*
X108650019Y-93674999D01*
X109200000Y-93674999D01*
X109249972Y-93674999D01*
X109249986Y-93674998D01*
X109352697Y-93664505D01*
X109519119Y-93609358D01*
X109519124Y-93609356D01*
X109668345Y-93517315D01*
X109792315Y-93393345D01*
X109884356Y-93244124D01*
X109884358Y-93244119D01*
X109939505Y-93077697D01*
X109939506Y-93077690D01*
X109949999Y-92974986D01*
X109950000Y-92974973D01*
X109950000Y-92700000D01*
X109200000Y-92700000D01*
X109200000Y-93674999D01*
X108650019Y-93674999D01*
X108699999Y-93674998D01*
X108700000Y-93674998D01*
X108700000Y-92574000D01*
X108719685Y-92506961D01*
X108772489Y-92461206D01*
X108824000Y-92450000D01*
X108950000Y-92450000D01*
X108950000Y-92324000D01*
X108969685Y-92256961D01*
X109022489Y-92211206D01*
X109074000Y-92200000D01*
X109949999Y-92200000D01*
X109949999Y-91925028D01*
X109949998Y-91925013D01*
X109939505Y-91822302D01*
X109884358Y-91655880D01*
X109884356Y-91655875D01*
X109792315Y-91506654D01*
X109668345Y-91382684D01*
X109519124Y-91290643D01*
X109519119Y-91290641D01*
X109364043Y-91239254D01*
X109306598Y-91199481D01*
X109279775Y-91134965D01*
X109292090Y-91066190D01*
X109315362Y-91033871D01*
X111537416Y-88811819D01*
X111564343Y-88797115D01*
X111590162Y-88780523D01*
X111596362Y-88779631D01*
X111598739Y-88778334D01*
X111625097Y-88775500D01*
X111738331Y-88775500D01*
X111738347Y-88775501D01*
X111745943Y-88775501D01*
X111904054Y-88775501D01*
X111904057Y-88775501D01*
X112056785Y-88734577D01*
X112106904Y-88705639D01*
X112193716Y-88655520D01*
X112305520Y-88543716D01*
X112305520Y-88543714D01*
X112315728Y-88533507D01*
X112315729Y-88533504D01*
X113212416Y-87636819D01*
X113273739Y-87603334D01*
X113300097Y-87600500D01*
X116307492Y-87600500D01*
X116308854Y-87600900D01*
X116310227Y-87600530D01*
X116342298Y-87610720D01*
X116374531Y-87620185D01*
X116375898Y-87621396D01*
X116376816Y-87621688D01*
X116380170Y-87625181D01*
X116402973Y-87645384D01*
X116408491Y-87652043D01*
X116457288Y-87731156D01*
X116555052Y-87828920D01*
X116558751Y-87833384D01*
X116570360Y-87860365D01*
X116584436Y-87886142D01*
X116584010Y-87892088D01*
X116586367Y-87897564D01*
X116581547Y-87926535D01*
X116579452Y-87955834D01*
X116575702Y-87961667D01*
X116574901Y-87966487D01*
X116567000Y-87975208D01*
X116550951Y-88000181D01*
X116457289Y-88093842D01*
X116365187Y-88243163D01*
X116365185Y-88243168D01*
X116346317Y-88300109D01*
X116310001Y-88409703D01*
X116310001Y-88409704D01*
X116310000Y-88409704D01*
X116299500Y-88512483D01*
X116299500Y-89137501D01*
X116299501Y-89137519D01*
X116310000Y-89240296D01*
X116310001Y-89240299D01*
X116326996Y-89291585D01*
X116365186Y-89406834D01*
X116457288Y-89556156D01*
X116581344Y-89680212D01*
X116730666Y-89772314D01*
X116814505Y-89800095D01*
X116871948Y-89839866D01*
X116898772Y-89904382D01*
X116899500Y-89917800D01*
X116899500Y-90930461D01*
X116879815Y-90997500D01*
X116827011Y-91043255D01*
X116814504Y-91048167D01*
X116727077Y-91077137D01*
X116727066Y-91077142D01*
X116579000Y-91168471D01*
X116578996Y-91168474D01*
X116455974Y-91291496D01*
X116455971Y-91291500D01*
X116364642Y-91439566D01*
X116364637Y-91439577D01*
X116309913Y-91604723D01*
X116299500Y-91706644D01*
X116299500Y-92293355D01*
X116309913Y-92395276D01*
X116364637Y-92560422D01*
X116364642Y-92560433D01*
X116455971Y-92708499D01*
X116455974Y-92708503D01*
X116578999Y-92831528D01*
X116580183Y-92832258D01*
X116580823Y-92832970D01*
X116584664Y-92836007D01*
X116584145Y-92836663D01*
X116626906Y-92884208D01*
X116638125Y-92953171D01*
X116610279Y-93017252D01*
X116584877Y-93039262D01*
X116584977Y-93039388D01*
X116582177Y-93041601D01*
X116580184Y-93043329D01*
X116579315Y-93043864D01*
X116579309Y-93043869D01*
X116456370Y-93166808D01*
X116365096Y-93314785D01*
X116365094Y-93314790D01*
X116310407Y-93479826D01*
X116300000Y-93581684D01*
X116300000Y-93625000D01*
X118700000Y-93625000D01*
X118700000Y-93581697D01*
X118699999Y-93581684D01*
X118689592Y-93479826D01*
X118634905Y-93314790D01*
X118634903Y-93314785D01*
X118543629Y-93166808D01*
X118420690Y-93043869D01*
X118420685Y-93043865D01*
X118419822Y-93043333D01*
X118419353Y-93042812D01*
X118415023Y-93039388D01*
X118415608Y-93038648D01*
X118373096Y-92991386D01*
X118361873Y-92922424D01*
X118389716Y-92858341D01*
X118415398Y-92836086D01*
X118415336Y-92836007D01*
X118417106Y-92834607D01*
X118419820Y-92832255D01*
X118421003Y-92831526D01*
X118544026Y-92708503D01*
X118635362Y-92560425D01*
X118690087Y-92395275D01*
X118700500Y-92293348D01*
X118700500Y-91706652D01*
X118690087Y-91604725D01*
X118635362Y-91439575D01*
X118635358Y-91439569D01*
X118635357Y-91439566D01*
X118544028Y-91291500D01*
X118544025Y-91291496D01*
X118421003Y-91168474D01*
X118420999Y-91168471D01*
X118272933Y-91077142D01*
X118272927Y-91077139D01*
X118272925Y-91077138D01*
X118185496Y-91048167D01*
X118128051Y-91008394D01*
X118101228Y-90943878D01*
X118100500Y-90930461D01*
X118100500Y-89917800D01*
X118120185Y-89850761D01*
X118172989Y-89805006D01*
X118185482Y-89800099D01*
X118269334Y-89772314D01*
X118418656Y-89680212D01*
X118542712Y-89556156D01*
X118634814Y-89406834D01*
X118689999Y-89240297D01*
X118700500Y-89137509D01*
X118700499Y-88512492D01*
X118696530Y-88473642D01*
X118689999Y-88409703D01*
X118689998Y-88409700D01*
X118653681Y-88300104D01*
X118634814Y-88243166D01*
X118542712Y-88093844D01*
X118449049Y-88000181D01*
X118415564Y-87938858D01*
X118420548Y-87869166D01*
X118449049Y-87824819D01*
X118485456Y-87788412D01*
X118542712Y-87731156D01*
X118634814Y-87581834D01*
X118689999Y-87415297D01*
X118700500Y-87312509D01*
X118700499Y-86687492D01*
X118693688Y-86620821D01*
X118689999Y-86584703D01*
X118689998Y-86584700D01*
X118679785Y-86553880D01*
X118634814Y-86418166D01*
X118542712Y-86268844D01*
X118418656Y-86144788D01*
X118269334Y-86052686D01*
X118102797Y-85997501D01*
X118102795Y-85997500D01*
X118000010Y-85987000D01*
X116999998Y-85987000D01*
X116999980Y-85987001D01*
X116897203Y-85997500D01*
X116897200Y-85997501D01*
X116730668Y-86052685D01*
X116730663Y-86052687D01*
X116581342Y-86144789D01*
X116457289Y-86268842D01*
X116413031Y-86340597D01*
X116361083Y-86387321D01*
X116307492Y-86399500D01*
X113086669Y-86399500D01*
X113086653Y-86399499D01*
X113079057Y-86399499D01*
X112920943Y-86399499D01*
X112813587Y-86428265D01*
X112768210Y-86440424D01*
X112768209Y-86440425D01*
X112718096Y-86469359D01*
X112718095Y-86469360D01*
X112674689Y-86494420D01*
X112631285Y-86519479D01*
X112631282Y-86519481D01*
X112137181Y-87013583D01*
X112075858Y-87047068D01*
X112006166Y-87042084D01*
X111950233Y-87000212D01*
X111925816Y-86934748D01*
X111925500Y-86925902D01*
X111925500Y-85192507D01*
X111945185Y-85125468D01*
X111984403Y-85086968D01*
X112056156Y-85042712D01*
X112180212Y-84918656D01*
X112272314Y-84769334D01*
X112327499Y-84602797D01*
X112338000Y-84500009D01*
X112337999Y-83499992D01*
X112336299Y-83483354D01*
X112327499Y-83397203D01*
X112327498Y-83397200D01*
X112314938Y-83359297D01*
X112272314Y-83230666D01*
X112180212Y-83081344D01*
X112056156Y-82957288D01*
X112056152Y-82957285D01*
X111984404Y-82913030D01*
X111937679Y-82861082D01*
X111925501Y-82807492D01*
X111925501Y-82645944D01*
X111910537Y-82590099D01*
X111884577Y-82493216D01*
X111853853Y-82440000D01*
X111805524Y-82356290D01*
X111805518Y-82356282D01*
X110760097Y-81310862D01*
X110726612Y-81249539D01*
X110724420Y-81210577D01*
X110725500Y-81200009D01*
X110725499Y-80599992D01*
X110714999Y-80497203D01*
X110659814Y-80330666D01*
X110567712Y-80181344D01*
X110443656Y-80057288D01*
X110440342Y-80055243D01*
X110438546Y-80053248D01*
X110437989Y-80052807D01*
X110438064Y-80052711D01*
X110393618Y-80003297D01*
X110382397Y-79934334D01*
X110410240Y-79870252D01*
X110440348Y-79844165D01*
X110443342Y-79842318D01*
X110567315Y-79718345D01*
X110659356Y-79569124D01*
X110659358Y-79569119D01*
X110714505Y-79402697D01*
X110714506Y-79402690D01*
X110724999Y-79299986D01*
X110725000Y-79299973D01*
X110725000Y-79250000D01*
X108275001Y-79250000D01*
X108275001Y-79299986D01*
X108285494Y-79402697D01*
X108340641Y-79569119D01*
X108340643Y-79569124D01*
X108432684Y-79718345D01*
X108556655Y-79842316D01*
X108556659Y-79842319D01*
X108559656Y-79844168D01*
X108561279Y-79845972D01*
X108562323Y-79846798D01*
X108562181Y-79846976D01*
X108606381Y-79896116D01*
X108617602Y-79965079D01*
X108589759Y-80029161D01*
X108559661Y-80055241D01*
X108556349Y-80057283D01*
X108556343Y-80057288D01*
X108432289Y-80181342D01*
X108340187Y-80330663D01*
X108340186Y-80330666D01*
X108285001Y-80497203D01*
X108285001Y-80497204D01*
X108285000Y-80497204D01*
X108274500Y-80599983D01*
X108274500Y-81200001D01*
X108274501Y-81200019D01*
X108285000Y-81302796D01*
X108285001Y-81302800D01*
X108302728Y-81356295D01*
X108303707Y-81384757D01*
X108307760Y-81412945D01*
X108304892Y-81419223D01*
X108305130Y-81426124D01*
X108290562Y-81450602D01*
X108278735Y-81476501D01*
X108272929Y-81480232D01*
X108269398Y-81486166D01*
X108243912Y-81498880D01*
X108219958Y-81514276D01*
X108210259Y-81515670D01*
X108206877Y-81517358D01*
X108185023Y-81519299D01*
X108040743Y-81519299D01*
X108040739Y-81519299D01*
X108033132Y-81519300D01*
X108033131Y-81519299D01*
X108033131Y-81519300D01*
X106772642Y-81519300D01*
X106705603Y-81499615D01*
X106673377Y-81469613D01*
X106626246Y-81406654D01*
X106603409Y-81389558D01*
X106511035Y-81320406D01*
X106511028Y-81320402D01*
X106376182Y-81270108D01*
X106376183Y-81270108D01*
X106316583Y-81263701D01*
X106316581Y-81263700D01*
X106316573Y-81263700D01*
X106316564Y-81263700D01*
X104823829Y-81263700D01*
X104823823Y-81263701D01*
X104764216Y-81270108D01*
X104629371Y-81320402D01*
X104629364Y-81320406D01*
X104514156Y-81406652D01*
X104514155Y-81406653D01*
X104514154Y-81406654D01*
X104467023Y-81469612D01*
X104411091Y-81511482D01*
X104367758Y-81519300D01*
X99966870Y-81519300D01*
X99966854Y-81519299D01*
X99959258Y-81519299D01*
X99801143Y-81519299D01*
X99724779Y-81539761D01*
X99648414Y-81560223D01*
X99648409Y-81560226D01*
X99511490Y-81639275D01*
X99511482Y-81639281D01*
X98485339Y-82665425D01*
X98424016Y-82698910D01*
X98421850Y-82699361D01*
X98266508Y-82730261D01*
X98266498Y-82730264D01*
X98120827Y-82790602D01*
X98120814Y-82790609D01*
X97989711Y-82878210D01*
X97989707Y-82878213D01*
X97878213Y-82989707D01*
X97878210Y-82989711D01*
X97790609Y-83120814D01*
X97790602Y-83120827D01*
X97730264Y-83266498D01*
X97730261Y-83266510D01*
X97699500Y-83421153D01*
X97699500Y-83578846D01*
X97730261Y-83733489D01*
X97730264Y-83733501D01*
X97790602Y-83879172D01*
X97790609Y-83879185D01*
X97878210Y-84010288D01*
X97878213Y-84010292D01*
X97989707Y-84121786D01*
X97989711Y-84121789D01*
X98120814Y-84209390D01*
X98120827Y-84209397D01*
X98234133Y-84256329D01*
X98266503Y-84269737D01*
X98421153Y-84300499D01*
X98421156Y-84300500D01*
X98421158Y-84300500D01*
X98578844Y-84300500D01*
X98578845Y-84300499D01*
X98733497Y-84269737D01*
X98873882Y-84211588D01*
X98879172Y-84209397D01*
X98879172Y-84209396D01*
X98879179Y-84209394D01*
X99010289Y-84121789D01*
X99121789Y-84010289D01*
X99209394Y-83879179D01*
X99269737Y-83733497D01*
X99295243Y-83605270D01*
X99300638Y-83578150D01*
X99333023Y-83516239D01*
X99334516Y-83514718D01*
X100092617Y-82756619D01*
X100153940Y-82723134D01*
X100180298Y-82720300D01*
X104276537Y-82720300D01*
X104343576Y-82739985D01*
X104389331Y-82792789D01*
X104399275Y-82861947D01*
X104392719Y-82887633D01*
X104378103Y-82926820D01*
X104378101Y-82926827D01*
X104371700Y-82986355D01*
X104371700Y-83139800D01*
X106768700Y-83139800D01*
X106768700Y-82986372D01*
X106768699Y-82986355D01*
X106762298Y-82926827D01*
X106762296Y-82926820D01*
X106747681Y-82887633D01*
X106742697Y-82817941D01*
X106776182Y-82756618D01*
X106837506Y-82723134D01*
X106863863Y-82720300D01*
X107819703Y-82720300D01*
X107886742Y-82739985D01*
X107907384Y-82756619D01*
X108460513Y-83309749D01*
X108493998Y-83371072D01*
X108496190Y-83410032D01*
X108487000Y-83499981D01*
X108487000Y-84500001D01*
X108487001Y-84500019D01*
X108497500Y-84602796D01*
X108497501Y-84602799D01*
X108518664Y-84666664D01*
X108552686Y-84769334D01*
X108644788Y-84918656D01*
X108768844Y-85042712D01*
X108918166Y-85134814D01*
X109084703Y-85189999D01*
X109187491Y-85200500D01*
X109812508Y-85200499D01*
X109812516Y-85200498D01*
X109812519Y-85200498D01*
X109890745Y-85192507D01*
X109915297Y-85189999D01*
X110081834Y-85134814D01*
X110231156Y-85042712D01*
X110324819Y-84949049D01*
X110327597Y-84947531D01*
X110329250Y-84944831D01*
X110358063Y-84930896D01*
X110386142Y-84915564D01*
X110389299Y-84915789D01*
X110392150Y-84914411D01*
X110423916Y-84918265D01*
X110455834Y-84920548D01*
X110459312Y-84922560D01*
X110461511Y-84922827D01*
X110471608Y-84929673D01*
X110491616Y-84941249D01*
X110496079Y-84944947D01*
X110593844Y-85042712D01*
X110672957Y-85091509D01*
X110679616Y-85097026D01*
X110694508Y-85119111D01*
X110712321Y-85138915D01*
X110714587Y-85148890D01*
X110718678Y-85154956D01*
X110718969Y-85168170D01*
X110724500Y-85192507D01*
X110724500Y-87874903D01*
X110704815Y-87941942D01*
X110688181Y-87962584D01*
X107862181Y-90788584D01*
X107800858Y-90822069D01*
X107731166Y-90817085D01*
X107675233Y-90775213D01*
X107650816Y-90709749D01*
X107650500Y-90700903D01*
X107650500Y-85717645D01*
X107650500Y-85717643D01*
X107609577Y-85564916D01*
X107536199Y-85437820D01*
X107530524Y-85427990D01*
X107530521Y-85427986D01*
X107530520Y-85427984D01*
X107418716Y-85316180D01*
X107418715Y-85316179D01*
X107414385Y-85311849D01*
X107414374Y-85311839D01*
X106805518Y-84702983D01*
X106772033Y-84641660D01*
X106769199Y-84615302D01*
X106769199Y-84256329D01*
X106769198Y-84256323D01*
X106769197Y-84256316D01*
X106762791Y-84196717D01*
X106714565Y-84067416D01*
X106709581Y-83997724D01*
X106714566Y-83980748D01*
X106762296Y-83852780D01*
X106762298Y-83852772D01*
X106768699Y-83793244D01*
X106768700Y-83793227D01*
X106768700Y-83639800D01*
X104371700Y-83639800D01*
X104371700Y-83793244D01*
X104378101Y-83852772D01*
X104378103Y-83852779D01*
X104425834Y-83980752D01*
X104430818Y-84050443D01*
X104425834Y-84067418D01*
X104377608Y-84196717D01*
X104371201Y-84256316D01*
X104371201Y-84256323D01*
X104371200Y-84256335D01*
X104371200Y-85063270D01*
X104371201Y-85063276D01*
X104377608Y-85122883D01*
X104392186Y-85161967D01*
X104397170Y-85231659D01*
X104363685Y-85292982D01*
X104302361Y-85326466D01*
X104276004Y-85329300D01*
X95999897Y-85329300D01*
X95970456Y-85320655D01*
X95940470Y-85314132D01*
X95935454Y-85310377D01*
X95932858Y-85309615D01*
X95912216Y-85292981D01*
X95833757Y-85214522D01*
X95800272Y-85153199D01*
X95803507Y-85088523D01*
X95817246Y-85046243D01*
X95850500Y-84836287D01*
X95850500Y-84623713D01*
X95817246Y-84413757D01*
X95751557Y-84211588D01*
X95655051Y-84022184D01*
X95655049Y-84022181D01*
X95655048Y-84022179D01*
X95530109Y-83850213D01*
X95416181Y-83736285D01*
X95382696Y-83674962D01*
X95387680Y-83605270D01*
X95429552Y-83549337D01*
X95460529Y-83532422D01*
X95592086Y-83483354D01*
X95592093Y-83483350D01*
X95707187Y-83397190D01*
X95707190Y-83397187D01*
X95793350Y-83282093D01*
X95793354Y-83282086D01*
X95843596Y-83147379D01*
X95843598Y-83147372D01*
X95849999Y-83087844D01*
X95850000Y-83087827D01*
X95850000Y-82440000D01*
X94933012Y-82440000D01*
X94965925Y-82382993D01*
X95000000Y-82255826D01*
X95000000Y-82124174D01*
X94965925Y-81997007D01*
X94933012Y-81940000D01*
X95850000Y-81940000D01*
X95850000Y-81292172D01*
X95849999Y-81292155D01*
X95843598Y-81232627D01*
X95843596Y-81232620D01*
X95793354Y-81097913D01*
X95793350Y-81097906D01*
X95707190Y-80982812D01*
X95707187Y-80982809D01*
X95592093Y-80896649D01*
X95592086Y-80896645D01*
X95457379Y-80846403D01*
X95457372Y-80846401D01*
X95397844Y-80840000D01*
X94750000Y-80840000D01*
X94750000Y-81756988D01*
X94692993Y-81724075D01*
X94565826Y-81690000D01*
X94434174Y-81690000D01*
X94307007Y-81724075D01*
X94250000Y-81756988D01*
X94250000Y-80840000D01*
X93602155Y-80840000D01*
X93542627Y-80846401D01*
X93542620Y-80846403D01*
X93407913Y-80896645D01*
X93407906Y-80896649D01*
X93292812Y-80982809D01*
X93292809Y-80982812D01*
X93206649Y-81097906D01*
X93206645Y-81097913D01*
X93156403Y-81232620D01*
X93156401Y-81232627D01*
X93150000Y-81292155D01*
X93150000Y-81940000D01*
X94066988Y-81940000D01*
X94034075Y-81997007D01*
X94000000Y-82124174D01*
X94000000Y-82255826D01*
X94034075Y-82382993D01*
X94066988Y-82440000D01*
X93150000Y-82440000D01*
X93150000Y-83087844D01*
X93156401Y-83147372D01*
X93156403Y-83147379D01*
X93206645Y-83282086D01*
X93206649Y-83282093D01*
X93292809Y-83397187D01*
X93292812Y-83397190D01*
X93407906Y-83483350D01*
X93407913Y-83483354D01*
X93539470Y-83532422D01*
X93595404Y-83574293D01*
X93619821Y-83639758D01*
X93604969Y-83708031D01*
X93583819Y-83736285D01*
X93469889Y-83850215D01*
X93344951Y-84022179D01*
X93248444Y-84211585D01*
X93182753Y-84413760D01*
X93149500Y-84623713D01*
X85500500Y-84623713D01*
X85500500Y-78385258D01*
X87249500Y-78385258D01*
X87249500Y-78614741D01*
X87260727Y-78700013D01*
X87279452Y-78842238D01*
X87279453Y-78842240D01*
X87338842Y-79063887D01*
X87426650Y-79275876D01*
X87426657Y-79275890D01*
X87541392Y-79474617D01*
X87681081Y-79656661D01*
X87681089Y-79656670D01*
X87843330Y-79818911D01*
X87843338Y-79818918D01*
X88025382Y-79958607D01*
X88025385Y-79958608D01*
X88025388Y-79958611D01*
X88224112Y-80073344D01*
X88224117Y-80073346D01*
X88224123Y-80073349D01*
X88315480Y-80111190D01*
X88436113Y-80161158D01*
X88657762Y-80220548D01*
X88885266Y-80250500D01*
X88885273Y-80250500D01*
X89114727Y-80250500D01*
X89114734Y-80250500D01*
X89342238Y-80220548D01*
X89563887Y-80161158D01*
X89775888Y-80073344D01*
X89974612Y-79958611D01*
X90156661Y-79818919D01*
X90156665Y-79818914D01*
X90156670Y-79818911D01*
X90318911Y-79656670D01*
X90318914Y-79656665D01*
X90318919Y-79656661D01*
X90458611Y-79474612D01*
X90573344Y-79275888D01*
X90661158Y-79063887D01*
X90720548Y-78842238D01*
X90739273Y-78700013D01*
X108275000Y-78700013D01*
X108275000Y-78750000D01*
X109250000Y-78750000D01*
X109750000Y-78750000D01*
X110724999Y-78750000D01*
X110724999Y-78700028D01*
X110724998Y-78700013D01*
X110714505Y-78597302D01*
X110659357Y-78430878D01*
X110631218Y-78385258D01*
X116749500Y-78385258D01*
X116749500Y-78614741D01*
X116760727Y-78700013D01*
X116779452Y-78842238D01*
X116779453Y-78842240D01*
X116838842Y-79063887D01*
X116926650Y-79275876D01*
X116926657Y-79275890D01*
X117041392Y-79474617D01*
X117181081Y-79656661D01*
X117181089Y-79656670D01*
X117343330Y-79818911D01*
X117343338Y-79818918D01*
X117525382Y-79958607D01*
X117525385Y-79958608D01*
X117525388Y-79958611D01*
X117724112Y-80073344D01*
X117724117Y-80073346D01*
X117724123Y-80073349D01*
X117815480Y-80111190D01*
X117936113Y-80161158D01*
X118157762Y-80220548D01*
X118385266Y-80250500D01*
X118385273Y-80250500D01*
X118614727Y-80250500D01*
X118614734Y-80250500D01*
X118842238Y-80220548D01*
X119063887Y-80161158D01*
X119275888Y-80073344D01*
X119474612Y-79958611D01*
X119656661Y-79818919D01*
X119656665Y-79818914D01*
X119656670Y-79818911D01*
X119818911Y-79656670D01*
X119818914Y-79656665D01*
X119818919Y-79656661D01*
X119958611Y-79474612D01*
X120073344Y-79275888D01*
X120161158Y-79063887D01*
X120220548Y-78842238D01*
X120250500Y-78614734D01*
X120250500Y-78385266D01*
X120220548Y-78157762D01*
X120161158Y-77936113D01*
X120073344Y-77724112D01*
X119958611Y-77525388D01*
X119958608Y-77525385D01*
X119958607Y-77525382D01*
X119818918Y-77343338D01*
X119818911Y-77343330D01*
X119656670Y-77181089D01*
X119656661Y-77181081D01*
X119474617Y-77041392D01*
X119275890Y-76926657D01*
X119275876Y-76926650D01*
X119063887Y-76838842D01*
X118842238Y-76779452D01*
X118804215Y-76774446D01*
X118614741Y-76749500D01*
X118614734Y-76749500D01*
X118385266Y-76749500D01*
X118385258Y-76749500D01*
X118168715Y-76778009D01*
X118157762Y-76779452D01*
X118064076Y-76804554D01*
X117936112Y-76838842D01*
X117724123Y-76926650D01*
X117724109Y-76926657D01*
X117525382Y-77041392D01*
X117343338Y-77181081D01*
X117181081Y-77343338D01*
X117041392Y-77525382D01*
X116926657Y-77724109D01*
X116926650Y-77724123D01*
X116838842Y-77936112D01*
X116779453Y-78157759D01*
X116779451Y-78157770D01*
X116749500Y-78385258D01*
X110631218Y-78385258D01*
X110567315Y-78281654D01*
X110443345Y-78157684D01*
X110294124Y-78065643D01*
X110294119Y-78065641D01*
X110127697Y-78010494D01*
X110127690Y-78010493D01*
X110024986Y-78000000D01*
X109750000Y-78000000D01*
X109750000Y-78750000D01*
X109250000Y-78750000D01*
X109250000Y-78000000D01*
X108975029Y-78000000D01*
X108975012Y-78000001D01*
X108872302Y-78010494D01*
X108705880Y-78065641D01*
X108705875Y-78065643D01*
X108556654Y-78157684D01*
X108432684Y-78281654D01*
X108340643Y-78430875D01*
X108340641Y-78430880D01*
X108285494Y-78597302D01*
X108285493Y-78597309D01*
X108275000Y-78700013D01*
X90739273Y-78700013D01*
X90750500Y-78614734D01*
X90750500Y-78385266D01*
X90720548Y-78157762D01*
X90661158Y-77936113D01*
X90573344Y-77724112D01*
X90458611Y-77525388D01*
X90458608Y-77525385D01*
X90458607Y-77525382D01*
X90318918Y-77343338D01*
X90318911Y-77343330D01*
X90156670Y-77181089D01*
X90156661Y-77181081D01*
X89974617Y-77041392D01*
X89775890Y-76926657D01*
X89775876Y-76926650D01*
X89563887Y-76838842D01*
X89342238Y-76779452D01*
X89304215Y-76774446D01*
X89114741Y-76749500D01*
X89114734Y-76749500D01*
X88885266Y-76749500D01*
X88885258Y-76749500D01*
X88668715Y-76778009D01*
X88657762Y-76779452D01*
X88564076Y-76804554D01*
X88436112Y-76838842D01*
X88224123Y-76926650D01*
X88224109Y-76926657D01*
X88025382Y-77041392D01*
X87843338Y-77181081D01*
X87681081Y-77343338D01*
X87541392Y-77525382D01*
X87426657Y-77724109D01*
X87426650Y-77724123D01*
X87338842Y-77936112D01*
X87279453Y-78157759D01*
X87279451Y-78157770D01*
X87249500Y-78385258D01*
X85500500Y-78385258D01*
X85500500Y-77503750D01*
X85500726Y-77496263D01*
X85518271Y-77206205D01*
X85520076Y-77191340D01*
X85568583Y-76926650D01*
X85571780Y-76909197D01*
X85575364Y-76894663D01*
X85660696Y-76620822D01*
X85665998Y-76606841D01*
X85783731Y-76345249D01*
X85790676Y-76332016D01*
X85939080Y-76086526D01*
X85947567Y-76074230D01*
X86124480Y-75848417D01*
X86134395Y-75837226D01*
X86337226Y-75634395D01*
X86348417Y-75624480D01*
X86574230Y-75447567D01*
X86586526Y-75439080D01*
X86832016Y-75290676D01*
X86845249Y-75283731D01*
X87106841Y-75165998D01*
X87120822Y-75160696D01*
X87394668Y-75075362D01*
X87409197Y-75071780D01*
X87691344Y-75020075D01*
X87706201Y-75018271D01*
X87996264Y-75000726D01*
X88003751Y-75000500D01*
X88065892Y-75000500D01*
X119434108Y-75000500D01*
X119496249Y-75000500D01*
X119503736Y-75000726D01*
G37*
%TD.AperFunction*%
%TD*%
M02*
