%TF.GenerationSoftware,KiCad,Pcbnew,9.0.6*%
%TF.CreationDate,2026-01-29T21:19:16-08:00*%
%TF.ProjectId,Lab3_VEML7700_Breakout ,4c616233-5f56-4454-9d4c-373730305f42,rev?*%
%TF.SameCoordinates,Original*%
%TF.FileFunction,Legend,Top*%
%TF.FilePolarity,Positive*%
%FSLAX46Y46*%
G04 Gerber Fmt 4.6, Leading zero omitted, Abs format (unit mm)*
G04 Created by KiCad (PCBNEW 9.0.6) date 2026-01-29 21:19:16*
%MOMM*%
%LPD*%
G01*
G04 APERTURE LIST*
%ADD10C,0.150000*%
%ADD11C,0.120000*%
%ADD12C,0.508000*%
%ADD13C,0.152400*%
G04 APERTURE END LIST*
D10*
X117166666Y-98004819D02*
X116833333Y-97528628D01*
X116595238Y-98004819D02*
X116595238Y-97004819D01*
X116595238Y-97004819D02*
X116976190Y-97004819D01*
X116976190Y-97004819D02*
X117071428Y-97052438D01*
X117071428Y-97052438D02*
X117119047Y-97100057D01*
X117119047Y-97100057D02*
X117166666Y-97195295D01*
X117166666Y-97195295D02*
X117166666Y-97338152D01*
X117166666Y-97338152D02*
X117119047Y-97433390D01*
X117119047Y-97433390D02*
X117071428Y-97481009D01*
X117071428Y-97481009D02*
X116976190Y-97528628D01*
X116976190Y-97528628D02*
X116595238Y-97528628D01*
X117595238Y-97481009D02*
X117928571Y-97481009D01*
X118071428Y-98004819D02*
X117595238Y-98004819D01*
X117595238Y-98004819D02*
X117595238Y-97004819D01*
X117595238Y-97004819D02*
X118071428Y-97004819D01*
X118833333Y-97481009D02*
X118500000Y-97481009D01*
X118500000Y-98004819D02*
X118500000Y-97004819D01*
X118500000Y-97004819D02*
X118976190Y-97004819D01*
X119500000Y-97004819D02*
X119500000Y-97242914D01*
X119261905Y-97147676D02*
X119500000Y-97242914D01*
X119500000Y-97242914D02*
X119738095Y-97147676D01*
X119357143Y-97433390D02*
X119500000Y-97242914D01*
X119500000Y-97242914D02*
X119642857Y-97433390D01*
X120261905Y-97004819D02*
X120261905Y-97242914D01*
X120023810Y-97147676D02*
X120261905Y-97242914D01*
X120261905Y-97242914D02*
X120500000Y-97147676D01*
X120119048Y-97433390D02*
X120261905Y-97242914D01*
X120261905Y-97242914D02*
X120404762Y-97433390D01*
X112166666Y-76454819D02*
X111833333Y-75978628D01*
X111595238Y-76454819D02*
X111595238Y-75454819D01*
X111595238Y-75454819D02*
X111976190Y-75454819D01*
X111976190Y-75454819D02*
X112071428Y-75502438D01*
X112071428Y-75502438D02*
X112119047Y-75550057D01*
X112119047Y-75550057D02*
X112166666Y-75645295D01*
X112166666Y-75645295D02*
X112166666Y-75788152D01*
X112166666Y-75788152D02*
X112119047Y-75883390D01*
X112119047Y-75883390D02*
X112071428Y-75931009D01*
X112071428Y-75931009D02*
X111976190Y-75978628D01*
X111976190Y-75978628D02*
X111595238Y-75978628D01*
X112595238Y-75931009D02*
X112928571Y-75931009D01*
X113071428Y-76454819D02*
X112595238Y-76454819D01*
X112595238Y-76454819D02*
X112595238Y-75454819D01*
X112595238Y-75454819D02*
X113071428Y-75454819D01*
X113833333Y-75931009D02*
X113500000Y-75931009D01*
X113500000Y-76454819D02*
X113500000Y-75454819D01*
X113500000Y-75454819D02*
X113976190Y-75454819D01*
X114500000Y-75454819D02*
X114500000Y-75692914D01*
X114261905Y-75597676D02*
X114500000Y-75692914D01*
X114500000Y-75692914D02*
X114738095Y-75597676D01*
X114357143Y-75883390D02*
X114500000Y-75692914D01*
X114500000Y-75692914D02*
X114642857Y-75883390D01*
X115261905Y-75454819D02*
X115261905Y-75692914D01*
X115023810Y-75597676D02*
X115261905Y-75692914D01*
X115261905Y-75692914D02*
X115500000Y-75597676D01*
X115119048Y-75883390D02*
X115261905Y-75692914D01*
X115261905Y-75692914D02*
X115404762Y-75883390D01*
X87666666Y-98004819D02*
X87333333Y-97528628D01*
X87095238Y-98004819D02*
X87095238Y-97004819D01*
X87095238Y-97004819D02*
X87476190Y-97004819D01*
X87476190Y-97004819D02*
X87571428Y-97052438D01*
X87571428Y-97052438D02*
X87619047Y-97100057D01*
X87619047Y-97100057D02*
X87666666Y-97195295D01*
X87666666Y-97195295D02*
X87666666Y-97338152D01*
X87666666Y-97338152D02*
X87619047Y-97433390D01*
X87619047Y-97433390D02*
X87571428Y-97481009D01*
X87571428Y-97481009D02*
X87476190Y-97528628D01*
X87476190Y-97528628D02*
X87095238Y-97528628D01*
X88095238Y-97481009D02*
X88428571Y-97481009D01*
X88571428Y-98004819D02*
X88095238Y-98004819D01*
X88095238Y-98004819D02*
X88095238Y-97004819D01*
X88095238Y-97004819D02*
X88571428Y-97004819D01*
X89333333Y-97481009D02*
X89000000Y-97481009D01*
X89000000Y-98004819D02*
X89000000Y-97004819D01*
X89000000Y-97004819D02*
X89476190Y-97004819D01*
X90000000Y-97004819D02*
X90000000Y-97242914D01*
X89761905Y-97147676D02*
X90000000Y-97242914D01*
X90000000Y-97242914D02*
X90238095Y-97147676D01*
X89857143Y-97433390D02*
X90000000Y-97242914D01*
X90000000Y-97242914D02*
X90142857Y-97433390D01*
X90761905Y-97004819D02*
X90761905Y-97242914D01*
X90523810Y-97147676D02*
X90761905Y-97242914D01*
X90761905Y-97242914D02*
X91000000Y-97147676D01*
X90619048Y-97433390D02*
X90761905Y-97242914D01*
X90761905Y-97242914D02*
X90904762Y-97433390D01*
X93166666Y-76954819D02*
X92833333Y-76478628D01*
X92595238Y-76954819D02*
X92595238Y-75954819D01*
X92595238Y-75954819D02*
X92976190Y-75954819D01*
X92976190Y-75954819D02*
X93071428Y-76002438D01*
X93071428Y-76002438D02*
X93119047Y-76050057D01*
X93119047Y-76050057D02*
X93166666Y-76145295D01*
X93166666Y-76145295D02*
X93166666Y-76288152D01*
X93166666Y-76288152D02*
X93119047Y-76383390D01*
X93119047Y-76383390D02*
X93071428Y-76431009D01*
X93071428Y-76431009D02*
X92976190Y-76478628D01*
X92976190Y-76478628D02*
X92595238Y-76478628D01*
X93595238Y-76431009D02*
X93928571Y-76431009D01*
X94071428Y-76954819D02*
X93595238Y-76954819D01*
X93595238Y-76954819D02*
X93595238Y-75954819D01*
X93595238Y-75954819D02*
X94071428Y-75954819D01*
X94833333Y-76431009D02*
X94500000Y-76431009D01*
X94500000Y-76954819D02*
X94500000Y-75954819D01*
X94500000Y-75954819D02*
X94976190Y-75954819D01*
X95500000Y-75954819D02*
X95500000Y-76192914D01*
X95261905Y-76097676D02*
X95500000Y-76192914D01*
X95500000Y-76192914D02*
X95738095Y-76097676D01*
X95357143Y-76383390D02*
X95500000Y-76192914D01*
X95500000Y-76192914D02*
X95642857Y-76383390D01*
X96261905Y-75954819D02*
X96261905Y-76192914D01*
X96023810Y-76097676D02*
X96261905Y-76192914D01*
X96261905Y-76192914D02*
X96500000Y-76097676D01*
X96119048Y-76383390D02*
X96261905Y-76192914D01*
X96261905Y-76192914D02*
X96404762Y-76383390D01*
X112104819Y-100166666D02*
X111628628Y-100499999D01*
X112104819Y-100738094D02*
X111104819Y-100738094D01*
X111104819Y-100738094D02*
X111104819Y-100357142D01*
X111104819Y-100357142D02*
X111152438Y-100261904D01*
X111152438Y-100261904D02*
X111200057Y-100214285D01*
X111200057Y-100214285D02*
X111295295Y-100166666D01*
X111295295Y-100166666D02*
X111438152Y-100166666D01*
X111438152Y-100166666D02*
X111533390Y-100214285D01*
X111533390Y-100214285D02*
X111581009Y-100261904D01*
X111581009Y-100261904D02*
X111628628Y-100357142D01*
X111628628Y-100357142D02*
X111628628Y-100738094D01*
X111200057Y-99785713D02*
X111152438Y-99738094D01*
X111152438Y-99738094D02*
X111104819Y-99642856D01*
X111104819Y-99642856D02*
X111104819Y-99404761D01*
X111104819Y-99404761D02*
X111152438Y-99309523D01*
X111152438Y-99309523D02*
X111200057Y-99261904D01*
X111200057Y-99261904D02*
X111295295Y-99214285D01*
X111295295Y-99214285D02*
X111390533Y-99214285D01*
X111390533Y-99214285D02*
X111533390Y-99261904D01*
X111533390Y-99261904D02*
X112104819Y-99833332D01*
X112104819Y-99833332D02*
X112104819Y-99214285D01*
X107833333Y-91129580D02*
X107785714Y-91177200D01*
X107785714Y-91177200D02*
X107642857Y-91224819D01*
X107642857Y-91224819D02*
X107547619Y-91224819D01*
X107547619Y-91224819D02*
X107404762Y-91177200D01*
X107404762Y-91177200D02*
X107309524Y-91081961D01*
X107309524Y-91081961D02*
X107261905Y-90986723D01*
X107261905Y-90986723D02*
X107214286Y-90796247D01*
X107214286Y-90796247D02*
X107214286Y-90653390D01*
X107214286Y-90653390D02*
X107261905Y-90462914D01*
X107261905Y-90462914D02*
X107309524Y-90367676D01*
X107309524Y-90367676D02*
X107404762Y-90272438D01*
X107404762Y-90272438D02*
X107547619Y-90224819D01*
X107547619Y-90224819D02*
X107642857Y-90224819D01*
X107642857Y-90224819D02*
X107785714Y-90272438D01*
X107785714Y-90272438D02*
X107833333Y-90320057D01*
X108214286Y-90320057D02*
X108261905Y-90272438D01*
X108261905Y-90272438D02*
X108357143Y-90224819D01*
X108357143Y-90224819D02*
X108595238Y-90224819D01*
X108595238Y-90224819D02*
X108690476Y-90272438D01*
X108690476Y-90272438D02*
X108738095Y-90320057D01*
X108738095Y-90320057D02*
X108785714Y-90415295D01*
X108785714Y-90415295D02*
X108785714Y-90510533D01*
X108785714Y-90510533D02*
X108738095Y-90653390D01*
X108738095Y-90653390D02*
X108166667Y-91224819D01*
X108166667Y-91224819D02*
X108785714Y-91224819D01*
X103650595Y-93554819D02*
X103650595Y-94364342D01*
X103650595Y-94364342D02*
X103698214Y-94459580D01*
X103698214Y-94459580D02*
X103745833Y-94507200D01*
X103745833Y-94507200D02*
X103841071Y-94554819D01*
X103841071Y-94554819D02*
X104031547Y-94554819D01*
X104031547Y-94554819D02*
X104126785Y-94507200D01*
X104126785Y-94507200D02*
X104174404Y-94459580D01*
X104174404Y-94459580D02*
X104222023Y-94364342D01*
X104222023Y-94364342D02*
X104222023Y-93554819D01*
X104650595Y-93650057D02*
X104698214Y-93602438D01*
X104698214Y-93602438D02*
X104793452Y-93554819D01*
X104793452Y-93554819D02*
X105031547Y-93554819D01*
X105031547Y-93554819D02*
X105126785Y-93602438D01*
X105126785Y-93602438D02*
X105174404Y-93650057D01*
X105174404Y-93650057D02*
X105222023Y-93745295D01*
X105222023Y-93745295D02*
X105222023Y-93840533D01*
X105222023Y-93840533D02*
X105174404Y-93983390D01*
X105174404Y-93983390D02*
X104602976Y-94554819D01*
X104602976Y-94554819D02*
X105222023Y-94554819D01*
X116304819Y-88079166D02*
X115828628Y-88412499D01*
X116304819Y-88650594D02*
X115304819Y-88650594D01*
X115304819Y-88650594D02*
X115304819Y-88269642D01*
X115304819Y-88269642D02*
X115352438Y-88174404D01*
X115352438Y-88174404D02*
X115400057Y-88126785D01*
X115400057Y-88126785D02*
X115495295Y-88079166D01*
X115495295Y-88079166D02*
X115638152Y-88079166D01*
X115638152Y-88079166D02*
X115733390Y-88126785D01*
X115733390Y-88126785D02*
X115781009Y-88174404D01*
X115781009Y-88174404D02*
X115828628Y-88269642D01*
X115828628Y-88269642D02*
X115828628Y-88650594D01*
X115304819Y-87174404D02*
X115304819Y-87650594D01*
X115304819Y-87650594D02*
X115781009Y-87698213D01*
X115781009Y-87698213D02*
X115733390Y-87650594D01*
X115733390Y-87650594D02*
X115685771Y-87555356D01*
X115685771Y-87555356D02*
X115685771Y-87317261D01*
X115685771Y-87317261D02*
X115733390Y-87222023D01*
X115733390Y-87222023D02*
X115781009Y-87174404D01*
X115781009Y-87174404D02*
X115876247Y-87126785D01*
X115876247Y-87126785D02*
X116114342Y-87126785D01*
X116114342Y-87126785D02*
X116209580Y-87174404D01*
X116209580Y-87174404D02*
X116257200Y-87222023D01*
X116257200Y-87222023D02*
X116304819Y-87317261D01*
X116304819Y-87317261D02*
X116304819Y-87555356D01*
X116304819Y-87555356D02*
X116257200Y-87650594D01*
X116257200Y-87650594D02*
X116209580Y-87698213D01*
X110245833Y-82804819D02*
X109912500Y-82328628D01*
X109674405Y-82804819D02*
X109674405Y-81804819D01*
X109674405Y-81804819D02*
X110055357Y-81804819D01*
X110055357Y-81804819D02*
X110150595Y-81852438D01*
X110150595Y-81852438D02*
X110198214Y-81900057D01*
X110198214Y-81900057D02*
X110245833Y-81995295D01*
X110245833Y-81995295D02*
X110245833Y-82138152D01*
X110245833Y-82138152D02*
X110198214Y-82233390D01*
X110198214Y-82233390D02*
X110150595Y-82281009D01*
X110150595Y-82281009D02*
X110055357Y-82328628D01*
X110055357Y-82328628D02*
X109674405Y-82328628D01*
X111102976Y-82138152D02*
X111102976Y-82804819D01*
X110864881Y-81757200D02*
X110626786Y-82471485D01*
X110626786Y-82471485D02*
X111245833Y-82471485D01*
X97804819Y-88666666D02*
X97328628Y-88999999D01*
X97804819Y-89238094D02*
X96804819Y-89238094D01*
X96804819Y-89238094D02*
X96804819Y-88857142D01*
X96804819Y-88857142D02*
X96852438Y-88761904D01*
X96852438Y-88761904D02*
X96900057Y-88714285D01*
X96900057Y-88714285D02*
X96995295Y-88666666D01*
X96995295Y-88666666D02*
X97138152Y-88666666D01*
X97138152Y-88666666D02*
X97233390Y-88714285D01*
X97233390Y-88714285D02*
X97281009Y-88761904D01*
X97281009Y-88761904D02*
X97328628Y-88857142D01*
X97328628Y-88857142D02*
X97328628Y-89238094D01*
X96804819Y-88333332D02*
X96804819Y-87714285D01*
X96804819Y-87714285D02*
X97185771Y-88047618D01*
X97185771Y-88047618D02*
X97185771Y-87904761D01*
X97185771Y-87904761D02*
X97233390Y-87809523D01*
X97233390Y-87809523D02*
X97281009Y-87761904D01*
X97281009Y-87761904D02*
X97376247Y-87714285D01*
X97376247Y-87714285D02*
X97614342Y-87714285D01*
X97614342Y-87714285D02*
X97709580Y-87761904D01*
X97709580Y-87761904D02*
X97757200Y-87809523D01*
X97757200Y-87809523D02*
X97804819Y-87904761D01*
X97804819Y-87904761D02*
X97804819Y-88190475D01*
X97804819Y-88190475D02*
X97757200Y-88285713D01*
X97757200Y-88285713D02*
X97709580Y-88333332D01*
X112104819Y-96079166D02*
X111628628Y-96412499D01*
X112104819Y-96650594D02*
X111104819Y-96650594D01*
X111104819Y-96650594D02*
X111104819Y-96269642D01*
X111104819Y-96269642D02*
X111152438Y-96174404D01*
X111152438Y-96174404D02*
X111200057Y-96126785D01*
X111200057Y-96126785D02*
X111295295Y-96079166D01*
X111295295Y-96079166D02*
X111438152Y-96079166D01*
X111438152Y-96079166D02*
X111533390Y-96126785D01*
X111533390Y-96126785D02*
X111581009Y-96174404D01*
X111581009Y-96174404D02*
X111628628Y-96269642D01*
X111628628Y-96269642D02*
X111628628Y-96650594D01*
X112104819Y-95126785D02*
X112104819Y-95698213D01*
X112104819Y-95412499D02*
X111104819Y-95412499D01*
X111104819Y-95412499D02*
X111247676Y-95507737D01*
X111247676Y-95507737D02*
X111342914Y-95602975D01*
X111342914Y-95602975D02*
X111390533Y-95698213D01*
X94166666Y-79264819D02*
X94166666Y-79979104D01*
X94166666Y-79979104D02*
X94119047Y-80121961D01*
X94119047Y-80121961D02*
X94023809Y-80217200D01*
X94023809Y-80217200D02*
X93880952Y-80264819D01*
X93880952Y-80264819D02*
X93785714Y-80264819D01*
X95166666Y-80264819D02*
X94595238Y-80264819D01*
X94880952Y-80264819D02*
X94880952Y-79264819D01*
X94880952Y-79264819D02*
X94785714Y-79407676D01*
X94785714Y-79407676D02*
X94690476Y-79502914D01*
X94690476Y-79502914D02*
X94595238Y-79550533D01*
X116304819Y-93675594D02*
X115304819Y-93675594D01*
X115304819Y-93675594D02*
X115304819Y-93437499D01*
X115304819Y-93437499D02*
X115352438Y-93294642D01*
X115352438Y-93294642D02*
X115447676Y-93199404D01*
X115447676Y-93199404D02*
X115542914Y-93151785D01*
X115542914Y-93151785D02*
X115733390Y-93104166D01*
X115733390Y-93104166D02*
X115876247Y-93104166D01*
X115876247Y-93104166D02*
X116066723Y-93151785D01*
X116066723Y-93151785D02*
X116161961Y-93199404D01*
X116161961Y-93199404D02*
X116257200Y-93294642D01*
X116257200Y-93294642D02*
X116304819Y-93437499D01*
X116304819Y-93437499D02*
X116304819Y-93675594D01*
X116304819Y-92151785D02*
X116304819Y-92723213D01*
X116304819Y-92437499D02*
X115304819Y-92437499D01*
X115304819Y-92437499D02*
X115447676Y-92532737D01*
X115447676Y-92532737D02*
X115542914Y-92627975D01*
X115542914Y-92627975D02*
X115590533Y-92723213D01*
X108179580Y-80116666D02*
X108227200Y-80164285D01*
X108227200Y-80164285D02*
X108274819Y-80307142D01*
X108274819Y-80307142D02*
X108274819Y-80402380D01*
X108274819Y-80402380D02*
X108227200Y-80545237D01*
X108227200Y-80545237D02*
X108131961Y-80640475D01*
X108131961Y-80640475D02*
X108036723Y-80688094D01*
X108036723Y-80688094D02*
X107846247Y-80735713D01*
X107846247Y-80735713D02*
X107703390Y-80735713D01*
X107703390Y-80735713D02*
X107512914Y-80688094D01*
X107512914Y-80688094D02*
X107417676Y-80640475D01*
X107417676Y-80640475D02*
X107322438Y-80545237D01*
X107322438Y-80545237D02*
X107274819Y-80402380D01*
X107274819Y-80402380D02*
X107274819Y-80307142D01*
X107274819Y-80307142D02*
X107322438Y-80164285D01*
X107322438Y-80164285D02*
X107370057Y-80116666D01*
X107274819Y-79783332D02*
X107274819Y-79164285D01*
X107274819Y-79164285D02*
X107655771Y-79497618D01*
X107655771Y-79497618D02*
X107655771Y-79354761D01*
X107655771Y-79354761D02*
X107703390Y-79259523D01*
X107703390Y-79259523D02*
X107751009Y-79211904D01*
X107751009Y-79211904D02*
X107846247Y-79164285D01*
X107846247Y-79164285D02*
X108084342Y-79164285D01*
X108084342Y-79164285D02*
X108179580Y-79211904D01*
X108179580Y-79211904D02*
X108227200Y-79259523D01*
X108227200Y-79259523D02*
X108274819Y-79354761D01*
X108274819Y-79354761D02*
X108274819Y-79640475D01*
X108274819Y-79640475D02*
X108227200Y-79735713D01*
X108227200Y-79735713D02*
X108179580Y-79783332D01*
X99039580Y-97116666D02*
X99087200Y-97164285D01*
X99087200Y-97164285D02*
X99134819Y-97307142D01*
X99134819Y-97307142D02*
X99134819Y-97402380D01*
X99134819Y-97402380D02*
X99087200Y-97545237D01*
X99087200Y-97545237D02*
X98991961Y-97640475D01*
X98991961Y-97640475D02*
X98896723Y-97688094D01*
X98896723Y-97688094D02*
X98706247Y-97735713D01*
X98706247Y-97735713D02*
X98563390Y-97735713D01*
X98563390Y-97735713D02*
X98372914Y-97688094D01*
X98372914Y-97688094D02*
X98277676Y-97640475D01*
X98277676Y-97640475D02*
X98182438Y-97545237D01*
X98182438Y-97545237D02*
X98134819Y-97402380D01*
X98134819Y-97402380D02*
X98134819Y-97307142D01*
X98134819Y-97307142D02*
X98182438Y-97164285D01*
X98182438Y-97164285D02*
X98230057Y-97116666D01*
X99134819Y-96164285D02*
X99134819Y-96735713D01*
X99134819Y-96449999D02*
X98134819Y-96449999D01*
X98134819Y-96449999D02*
X98277676Y-96545237D01*
X98277676Y-96545237D02*
X98372914Y-96640475D01*
X98372914Y-96640475D02*
X98420533Y-96735713D01*
D11*
%TO.C,R2*%
X109265000Y-99772936D02*
X109265000Y-100227064D01*
X110735000Y-99772936D02*
X110735000Y-100227064D01*
%TO.C,C2*%
X107738748Y-91715000D02*
X108261252Y-91715000D01*
X107738748Y-93185000D02*
X108261252Y-93185000D01*
%TO.C,U2*%
X102962500Y-94990000D02*
X102722500Y-94660000D01*
X103202500Y-94660000D01*
X102962500Y-94990000D01*
G36*
X102962500Y-94990000D02*
G01*
X102722500Y-94660000D01*
X103202500Y-94660000D01*
X102962500Y-94990000D01*
G37*
X105322500Y-98060000D02*
X103502500Y-98060000D01*
X105322500Y-98010000D02*
X105322500Y-98060000D01*
X105322500Y-94940000D02*
X105322500Y-94990000D01*
X103502500Y-98060000D02*
X103502500Y-98010000D01*
X103502500Y-94990000D02*
X103502500Y-94940000D01*
X103502500Y-94940000D02*
X105322500Y-94940000D01*
D12*
%TO.C,U1*%
X105951200Y-89663600D02*
G75*
G02*
X105189200Y-89663600I-381000J0D01*
G01*
X105189200Y-89663600D02*
G75*
G02*
X105951200Y-89663600I381000J0D01*
G01*
D13*
X106296800Y-87631600D02*
X106296800Y-86616951D01*
X106296800Y-80418000D02*
X102893200Y-80418000D01*
X102893200Y-80418000D02*
X102893200Y-87631600D01*
X102893200Y-87631600D02*
X106296800Y-87631600D01*
X106296800Y-81432649D02*
X106296800Y-80418000D01*
D11*
%TO.C,R5*%
X116765000Y-88139564D02*
X116765000Y-87685436D01*
X118235000Y-88139564D02*
X118235000Y-87685436D01*
%TO.C,R4*%
X110185436Y-83265000D02*
X110639564Y-83265000D01*
X110185436Y-84735000D02*
X110639564Y-84735000D01*
%TO.C,R3*%
X98265000Y-88727064D02*
X98265000Y-88272936D01*
X99735000Y-88727064D02*
X99735000Y-88272936D01*
%TO.C,R1*%
X110735000Y-95685436D02*
X110735000Y-96139564D01*
X109265000Y-95685436D02*
X109265000Y-96139564D01*
%TO.C,J1*%
X93120000Y-80810000D02*
X94500000Y-80810000D01*
X93120000Y-82190000D02*
X93120000Y-80810000D01*
X93120000Y-83460000D02*
X93120000Y-91190000D01*
X93120000Y-83460000D02*
X95880000Y-83460000D01*
X93120000Y-91190000D02*
X95880000Y-91190000D01*
X95880000Y-83460000D02*
X95880000Y-91190000D01*
%TO.C,D1*%
X116540000Y-94622500D02*
X118460000Y-94622500D01*
X118460000Y-94622500D02*
X118460000Y-91937500D01*
X116540000Y-91937500D02*
X116540000Y-94622500D01*
%TO.C,C3*%
X108765000Y-80211252D02*
X108765000Y-79688748D01*
X110235000Y-80211252D02*
X110235000Y-79688748D01*
%TO.C,C1*%
X96265000Y-96688748D02*
X96265000Y-97211252D01*
X97735000Y-96688748D02*
X97735000Y-97211252D01*
%TD*%
M02*
